<svg xmlns="http://www.w3.org/2000/svg" width="45.875" height="42.312" viewBox="0 0 45.875 42.312">
  <defs>
    <style>
      .cls-1 {
        fill: #9c9da4;
        fill-rule: evenodd;
      }
    </style>
  </defs>
  <path id="Forma_1" data-name="Forma 1" class="cls-1" d="M513.832,256.167a2.757,2.757,0,1,0,3.116,2.733A2.946,2.946,0,0,0,513.832,256.167Zm0,3.67a0.99,0.99,0,1,1,1.309-.937A1.188,1.188,0,0,1,513.832,259.837ZM510,254.157h-0.06a0.9,0.9,0,1,0,0,1.8H510A0.9,0.9,0,1,0,510,254.157Zm26.441,15.432-1.97-10.567a0.9,0.9,0,0,0-.888-0.734h-2.428a4.2,4.2,0,0,0-.237-0.809l-4.632-11.446a4.29,4.29,0,0,0-5.39-2.422h-3.161v-0.082a8.082,8.082,0,0,0,3.936-8.9,3.267,3.267,0,0,0,1.508-2.046,0.9,0.9,0,0,0-.289-0.871,0.911,0.911,0,0,0-.908-0.164,2.327,2.327,0,0,1-.8.161,1.93,1.93,0,0,1-1.459-.8,7.6,7.6,0,0,0-5.845-2.558h-0.025c-3.722.01-6.125,1.653-7.791,5.325l0,0.007-0.008.017-0.009.024-0.021.052-0.012.04c0,0.011-.007.022-0.01,0.034l-0.006.024a0.008,0.008,0,0,1,0,0,9.2,9.2,0,0,0,.533,6.039,8.073,8.073,0,0,0,3.356,3.7h-3.557a4.29,4.29,0,0,0-5.39,2.422L496.3,257.479a4.2,4.2,0,0,0-.237.809h-3.075a0.9,0.9,0,0,0-.894.77l-1.532,10.566a0.9,0.9,0,0,0,.894,1.026h44.1A0.9,0.9,0,0,0,536.437,269.589Zm-18.206-24.182h2.825a0.9,0.9,0,0,0,.337-0.065,2.478,2.478,0,0,1,3.213,1.361l4.632,11.446a2.458,2.458,0,0,1-1.369,3.192,4.285,4.285,0,0,1-2.353.024l0.616-9.751a0.9,0.9,0,0,0-.9-0.955h-7.655L517,247.635Zm-11.054,8.75h-3.9l-0.108-1.7h21.1L523.5,264.623H503.94l-0.548-8.67h3.785A0.9,0.9,0,1,0,507.177,254.157Zm8.336-7.57h-2.894l-0.762-1.18h4.31Zm0.223,4.072h-3.182l0.347-2.276h2.4Zm-1.883-20.514h0.02a5.834,5.834,0,0,1,4.492,1.952,4.063,4.063,0,0,0,1.862,1.268l-0.025.013a6.377,6.377,0,0,1-2.413.408,13.342,13.342,0,0,1-5.195-1.185,5.573,5.573,0,0,0-2.259-.468,6.5,6.5,0,0,0-1.366.149A5.757,5.757,0,0,1,513.853,230.145Zm-6.191,4.523a5.89,5.89,0,0,1,2.673-.739,3.8,3.8,0,0,1,1.53.314,14.957,14.957,0,0,0,5.924,1.339,9.031,9.031,0,0,0,2.181-.25,6.286,6.286,0,0,1,.1,1.131,6.35,6.35,0,0,1-3.633,5.711,0.9,0.9,0,0,0-.515.811v0.626h-4.147v-0.5a0.9,0.9,0,0,0-.537-0.821A6.812,6.812,0,0,1,507.662,234.668Zm-9.689,23.481,4.632-11.446a2.477,2.477,0,0,1,3.212-1.361,0.91,0.91,0,0,0,.337.065h3.557l1.47,2.278-0.455,2.975h-8.517a0.9,0.9,0,0,0-.658.283,0.892,0.892,0,0,0-.243.671l0.61,9.661a4.178,4.178,0,0,1-2.576.067A2.45,2.45,0,0,1,498,260.026,2.421,2.421,0,0,1,497.973,258.149Zm-5.477,10.7h0l1.271-8.771h2.349a4.264,4.264,0,0,0,2.552,2.925,4.944,4.944,0,0,0,1.8.308,6.348,6.348,0,0,0,1.57-.2l0.155,2.458a0.9,0.9,0,0,0,.9.842h21.257a0.9,0.9,0,0,0,.9-0.842l0.151-2.393a6.516,6.516,0,0,0,1.309.133,5.1,5.1,0,0,0,1.833-.309,4.231,4.231,0,0,0,2.333-2.278,4.307,4.307,0,0,0,.218-0.646h1.734l1.634,8.77H492.5Z" transform="translate(-490.563 -228.344)"/>
</svg>
