<svg xmlns="http://www.w3.org/2000/svg" width="26" height="26.061" viewBox="0 0 26 26.061">
  <defs>
    <style>
      .cls-1 {
        fill: #9c9da4;
        fill-rule: evenodd;
      }
    </style>
  </defs>
  <path id="Forma_1" data-name="Forma 1" class="cls-1" d="M1865.89,1000.05a12.557,12.557,0,0,0-1.53-.619,6.917,6.917,0,1,0-8.28,0,13.23,13.23,0,0,0-8.81,9.854,3.092,3.092,0,0,0,.63,2.59,3.053,3.053,0,0,0,2.39,1.14h12.52a1.015,1.015,0,0,0,0-2.03h-12.52a1.051,1.051,0,0,1-.81-0.39,1.091,1.091,0,0,1-.22-0.89,11.239,11.239,0,0,1,10.69-8.9h0.54a11.188,11.188,0,0,1,4.52,1.07A1.015,1.015,0,1,0,1865.89,1000.05Zm-5.43-1.277q-0.12,0-.24,0c-0.09,0-.17,0-0.25,0A4.885,4.885,0,1,1,1860.46,998.773Zm11.75,8.4h-2.8v-2.8a1.015,1.015,0,0,0-2.03,0v2.8h-2.79a1.02,1.02,0,0,0,0,2.04h2.79V1012a1.015,1.015,0,1,0,2.03,0v-2.79h2.8A1.02,1.02,0,0,0,1872.21,1007.17Z" transform="translate(-1847.22 -986.969)"/>
</svg>
