<svg xmlns="http://www.w3.org/2000/svg" width="20.82" height="22" viewBox="0 0 20.82 22">
  <defs>
    <style>
      .cls-1 {
        fill: #9c9da4;
        fill-rule: evenodd;
      }
    </style>
  </defs>
  <path class="cls-1" d="M6270.64,630.455l4.17-.033h0.72V631.1l-0.03,4.028h-1.38v-2.274a12.607,12.607,0,0,1-4.69,3.639,17.052,17.052,0,0,1-7.39,1.429v-1.364a16.094,16.094,0,0,0,6.83-1.3,11.809,11.809,0,0,0,4.33-3.443h-2.56v-1.364Zm-10.96,9.452h3.97v11.11h2.07v-8.641h4.66v8.641h2.07V637.439h4.66v13.578h1.31v1.429h-20.84v-1.429h1.41v-11.11h0.69Zm2.56,1.4h-1.87v9.713h1.87V641.3Zm6.73,2.469h-1.87v7.244h1.87v-7.244Zm6.73-4.97h-1.87v12.214h1.87V638.8Z" transform="translate(-6257.59 -630.438)"/>
</svg>
