<svg xmlns="http://www.w3.org/2000/svg" width="20" height="21.312" viewBox="0 0 20 21.312">
  <defs>
    <style>
      .cls-1 {
        fill: #bdbec2;
        fill-rule: evenodd;
      }
    </style>
  </defs>
  <path id="Forma_1" data-name="Forma 1" class="cls-1" d="M1979.5,427.5h-1.34v1.334h1.34V427.5Zm5.33-1.333h-1.33V427.5h1.33v-1.333Zm2.67,0h-1.33V427.5h1.33v-1.333Zm2.67,0h-1.34V427.5h1.34v-1.333Zm-5.34-2.668h-1.33v1.334h1.33V423.5Zm2.67,0h-1.33v1.334h1.33V423.5Zm2.67,0h-1.34v1.334h1.34V423.5Zm-5.34,8h-1.33v1.334h1.33V431.5Zm2.67,0h-1.33v1.334h1.33V431.5Zm2.67,0h-1.34v1.334h1.34V431.5Zm-5.34,2.667h-1.33V435.5h1.33v-1.334Zm5.34,0h-1.34V435.5h1.34v-1.334Zm-5.34,2.668h-1.33v1.334h1.33v-1.334Zm5.34,0h-1.34v1.334h1.34v-1.334Zm-5.34-8h-1.33v1.334h1.33v-1.334Zm2.67,0h-1.33v1.334h1.33v-1.334Zm2.67,0h-1.34v1.334h1.34v-1.334Zm-10.67,1.334h-1.34V431.5h1.34v-1.334Zm0,2.668h-1.34v1.333h1.34v-1.333Zm0,2.667h-1.34v1.334h1.34V435.5Zm0,2.668h-1.34V439.5h1.34v-1.334Zm8-4h-1.33V435.5h1.33v-1.334Zm6.67-4h-1.34v-8a1.328,1.328,0,0,0-1.33-1.334h-9.33a1.337,1.337,0,0,0-1.34,1.334v2.668h-4a1.328,1.328,0,0,0-1.33,1.334v14.672a1.328,1.328,0,0,0,1.33,1.333h17.34a1.328,1.328,0,0,0,1.33-1.333V431.5A1.328,1.328,0,0,0,1994.17,430.166Zm-13.34,10.671h-4V426.165h4v14.672Zm10.67,0h-4v-4h-1.33v4h-4V422.163h9.33v18.674Zm2.67,0h-1.34V439.5h1.34v1.334Zm0-2.668h-1.34v-1.334h1.34v1.334Zm0-2.668h-1.34v-1.334h1.34V435.5Zm0-2.667h-1.34V431.5h1.34v1.334Z" transform="translate(-1975.5 -420.844)"/>
</svg>
