<svg xmlns="http://www.w3.org/2000/svg" width="24.188" height="25" viewBox="0 0 24.188 25">
  <defs>
    <style>
      .cls-1 {
        fill: #9c9da4;
        fill-rule: evenodd;
      }
    </style>
  </defs>
  <path id="Forma_1" data-name="Forma 1" class="cls-1" d="M40.361,511.956H35.526v-0.727a0.738,0.738,0,0,0-1.476,0v0.727H29.738v-0.727a0.738,0.738,0,0,0-1.476,0v0.727H24.134v-0.727a0.738,0.738,0,0,0-1.476,0v0.727H17.639a0.738,0.738,0,0,0-.738.738v16.662a0.738,0.738,0,0,0,.738.738h4.53a7.017,7.017,0,0,0,13.663,0h4.53a0.738,0.738,0,0,0,.738-0.738V512.694A0.738,0.738,0,0,0,40.361,511.956Zm-17.7,1.475V514.1a0.738,0.738,0,0,0,1.476,0v-0.667h4.128V514.1a0.738,0.738,0,0,0,1.476,0v-0.667H34.05V514.1a0.738,0.738,0,0,0,1.476,0v-0.667h4.1v3.016H18.377v-3.016h4.281ZM29,534.033a5.537,5.537,0,1,1,5.542-5.537A5.546,5.546,0,0,1,29,534.033Zm7.015-5.414c0-.041,0-0.082,0-0.123a7.018,7.018,0,0,0-14.035,0c0,0.041,0,.082,0,0.123H18.377v-10.7H39.623v10.7H36.014Zm-6.277.063v-3.567a0.738,0.738,0,0,0-1.476,0v3.873a0.737,0.737,0,0,0,.216.521l1.7,1.695a0.738,0.738,0,0,0,1.044-1.043Z" transform="translate(-16.906 -510.5)"/>
</svg>
