<?xml version="1.0" encoding="utf-8"?>
<!-- Generator: Adobe Illustrator 23.0.0, SVG Export Plug-In . SVG Version: 6.00 Build 0)  -->
<svg version="1.1" id="Layer_1" xmlns="http://www.w3.org/2000/svg" xmlns:xlink="http://www.w3.org/1999/xlink" x="0px" y="0px"
	 viewBox="0 0 24 24" style="enable-background:new 0 0 24 24;" xml:space="preserve">
<style type="text/css">
	.st0{fill:#BDBEC3;}
</style>
<g id="Rounded_Rectangle_1932_copy">
	<path class="st0" d="M21,1c1.1,0,2,0.9,2,2v18c0,1.1-0.9,2-2,2H3c-1.1,0-2-0.9-2-2V3c0-1.1,0.9-2,2-2H21 M21,0H3C1.3,0,0,1.3,0,3
		v18c0,1.7,1.3,3,3,3h18c1.7,0,3-1.3,3-3V3C24,1.3,22.7,0,21,0L21,0z"/>
</g>
</svg>
