<svg xmlns="http://www.w3.org/2000/svg" width="20" height="24" viewBox="0 0 20 24">
  <defs>
    <style>
      .cls-1 {
        fill: #9c9da4;
        fill-rule: evenodd;
      }
    </style>
  </defs>
  <path id="Forma_1" data-name="Forma 1" class="cls-1" d="M27.78,799.218a0.752,0.752,0,0,0-1.062,0l-2.472,2.473-0.971-.972a0.751,0.751,0,0,0-1.061,1.062l1.5,1.5a0.74,0.74,0,0,0,.53.221,0.751,0.751,0,0,0,.531-0.219l3-3A0.751,0.751,0,0,0,27.78,799.218Zm0,6a0.753,0.753,0,0,0-1.062,0L24.246,807.7l-0.971-.97a0.75,0.75,0,0,0-1.061,1.061l1.5,1.5a0.752,0.752,0,0,0,1.061,0l3-3A0.753,0.753,0,0,0,27.78,805.223Zm6.474-4.725h-4a0.751,0.751,0,0,0,0,1.5h4A0.751,0.751,0,0,0,34.254,800.5Zm0,6.006h-4a0.751,0.751,0,0,0,0,1.5h4A0.751,0.751,0,0,0,34.254,806.5Zm3.252-13.513h-4V792.24a0.751,0.751,0,0,0-.752-0.75H31.124a2.254,2.254,0,0,0-4.25,0H25.246a0.751,0.751,0,0,0-.752.75v0.751h-4a1.5,1.5,0,0,0-1.5,1.5V812.51a1.5,1.5,0,0,0,1.5,1.5H37.506a1.5,1.5,0,0,0,1.5-1.5V794.492A1.5,1.5,0,0,0,37.506,792.991Zm-11.51,0h1.5a0.751,0.751,0,0,0,.75-0.751,0.751,0.751,0,0,1,1.5,0,0.751,0.751,0,0,0,.75.751H32v1.5H26v-1.5Zm11.51,19.519H20.492V794.492h4v0.751a0.751,0.751,0,0,0,.752.751h7.506a0.751,0.751,0,0,0,.752-0.751v-0.751h4V812.51Z" transform="translate(-19 -790)"/>
</svg>
