<svg xmlns="http://www.w3.org/2000/svg" width="20.438" height="24" viewBox="0 0 20.438 24">
  <defs>
    <style>
      .cls-1 {
        fill: #9c9da4;
        fill-rule: evenodd;
      }
    </style>
  </defs>
  <path class="cls-1" d="M36.626,533.5h9.766a0.784,0.784,0,0,0,.169.029,1.557,1.557,0,0,1,1.554,1.609c-0.022,1.5,0,5.337,0,6.832,0,3.926,0,10.2,0,14.126v1.4H46.844a0.958,0.958,0,0,1-.013-0.1q0-4.586,0-9.171c0-2.773,0-10.242,0-13.015,0-.325-0.081-0.409-0.393-0.409H36.8c-0.325,0-.41.094-0.41,0.42,0,0.944,0,4.235,0,5.179v1.124h0.321c1.6,0,4.207,0,5.81,0a1.5,1.5,0,0,1,1.567,1.236,4.356,4.356,0,0,1,.035.774c0,3.6,0,9.547,0,13.147v0.8H27.694v-0.374q0-2.506,0-5.012c0-2.188-.006-6.724,0-8.912a1.562,1.562,0,0,1,1.7-1.67c0.82,0,3.14,0,3.958,0h1.734c0.009-.112.02-0.194,0.02-0.276,0-1.236,0-4.819,0-6.056a1.676,1.676,0,0,1,.365-1.115A1.761,1.761,0,0,1,36.626,533.5Zm0.2,19.533v3.18h6a0.768,0.768,0,0,0,.017-0.092c0-3.534,0-9.416,0-12.95a0.316,0.316,0,0,0-.393-0.363c-3.5,0-9.5,0-13,0-0.409,0-.471.068-0.471,0.488,0,0.819,0,3.985,0,4.8q0,3.458-.005,6.916v1.2H34.93v-3.185h1.9Zm4.3-15.463h1.888v1.877H41.125v-1.877Zm-3.283,1.856V537.6h1.864v1.834H37.842Zm-4.321,5.261v1.889H31.63v-0.871c0-.284-0.006-0.568.006-0.851a0.215,0.215,0,0,1,.123-0.16C32.342,544.687,32.923,544.69,33.522,544.69Zm4.7,1.89V544.7H40.1v1.876H38.223Zm-4.7,6.493H31.65v-1.882h1.868v1.882ZM40.1,551.19v1.875H38.234V551.19H40.1Zm-8.44-3.24H33.5v1.866h-1.84V547.95Zm5.14-1.38H34.941v-1.848H36.8v1.848Zm1.444,1.38h1.832v1.864H38.247V547.95Zm-3.305.025h1.832v1.847c-0.58,0-1.151,0-1.725-.008a0.233,0.233,0,0,1-.1-0.177C34.937,549.1,34.941,548.554,34.941,547.975Z" transform="translate(-27.688 -533.5)"/>
</svg>
