<svg xmlns="http://www.w3.org/2000/svg" width="15.25" height="18" viewBox="0 0 15.25 18">
  <defs>
    <style>
      .cls-1 {
        fill: #b9babd;
        fill-rule: evenodd;
      }
    </style>
  </defs>
  <path id="ADD_CPL" data-name="ADD CPL" class="cls-1" d="M2063.4,887.621a2.659,2.659,0,0,0-.52-0.823l-3.38-4.071a2.861,2.861,0,0,0-1.77-.736h-8.3a1.03,1.03,0,0,0-1.04,1.039v15.94a1.03,1.03,0,0,0,1.04,1.039h13.14a1.03,1.03,0,0,0,1.04-1.039v-10.4A2.567,2.567,0,0,0,2063.4,887.621Zm-6.02-3.465a1.232,1.232,0,0,1,.45.238l3.38,3.39a1.1,1.1,0,0,1,.24.444h-4.07v-4.072Zm4.16,13.775h-11.08V884.069h4.85v5.2a1.03,1.03,0,0,0,1.04,1.039h5.19v7.625Z" transform="translate(-2048.38 -882)"/>
</svg>
