<svg xmlns="http://www.w3.org/2000/svg" width="15.1" height="15.094" viewBox="0 0 15.1 15.094">
  <defs>
    <style>
      .cls-1 {
        fill: #b9babd;
        fill-rule: evenodd;
      }
    </style>
  </defs>
  <path id="reject" class="cls-1" d="M2480.6,580.059l5.94-5.939a0.211,0.211,0,0,0,0-.295l-1.25-1.254a0.226,0.226,0,0,0-.15-0.061,0.208,0.208,0,0,0-.15.061l-5.93,5.939-5.94-5.939a0.209,0.209,0,0,0-.29,0l-1.25,1.254a0.211,0.211,0,0,0,0,.295l5.93,5.939L2471.58,586a0.211,0.211,0,0,0,0,.295l1.25,1.254a0.208,0.208,0,0,0,.15.061,0.186,0.186,0,0,0,.14-0.061l5.94-5.939,5.93,5.939a0.208,0.208,0,0,0,.15.061,0.226,0.226,0,0,0,.15-0.061l1.25-1.254a0.211,0.211,0,0,0,0-.295Z" transform="translate(-2471.53 -572.5)"/>
</svg>
