<svg xmlns="http://www.w3.org/2000/svg" width="22" height="22" viewBox="0 0 22 22">
  <defs>
    <style>
      .cls-1 {
        fill: #9c9da4;
        fill-rule: evenodd;
      }
    </style>
  </defs>
  <path id="Forma_1" data-name="Forma 1" class="cls-1" d="M35.309,37.011H26.855a0.844,0.844,0,0,0-.845.845v8.453a0.844,0.844,0,0,0,.845.845h8.454a0.846,0.846,0,0,0,.845-0.845V37.856A0.846,0.846,0,0,0,35.309,37.011Zm-0.846,8.453H27.7V38.7h6.763v6.762h0Zm12.68-8.453H38.689a0.846,0.846,0,0,0-.845.845v8.453a0.846,0.846,0,0,0,.845.845h8.454a0.844,0.844,0,0,0,.845-0.845V37.856A0.844,0.844,0,0,0,47.143,37.011ZM46.3,45.464H39.535V38.7H46.3v6.762ZM35.309,48.845H26.855a0.844,0.844,0,0,0-.845.845v8.453a0.844,0.844,0,0,0,.845.845h8.454a0.846,0.846,0,0,0,.845-0.845V49.69A0.846,0.846,0,0,0,35.309,48.845ZM34.463,57.3H27.7V50.536h6.763V57.3h0Zm12.68-8.453H38.689a0.845,0.845,0,0,0-.845.845v8.453a0.845,0.845,0,0,0,.845.845h8.454a0.844,0.844,0,0,0,.845-0.845V49.69A0.844,0.844,0,0,0,47.143,48.845ZM46.3,57.3H39.535V50.536H46.3V57.3Z" transform="translate(-26 -37)"/>
</svg>
