<svg xmlns="http://www.w3.org/2000/svg" width="13.69" height="18.282" viewBox="0 0 13.69 18.282">
  <defs>
    <style>
      .cls-1 {
        fill: #b9babd;
        fill-rule: evenodd;
      }
    </style>
  </defs>
  <path id="Forma_1_copy_21" data-name="Forma 1 copy 21" class="cls-1" d="M1477.35,624.665a0.406,0.406,0,0,0,.41.406h10.6a0.415,0.415,0,0,0,.42-0.406V611.5h-11.43v13.166h0Zm8.06-10.925h1.57V622.6h-1.57V613.74Zm-3.13,0h1.57V622.6h-1.57V613.74Zm-3.13,0h1.56V622.6h-1.56V613.74Zm7.43-5.1v-1.461a0.408,0.408,0,0,0-.42-0.406h-6.2a0.415,0.415,0,0,0-.42.406v1.969h-2.92a0.406,0.406,0,0,0-.41.406v1.028a0.406,0.406,0,0,0,.41.406h12.88a0.415,0.415,0,0,0,.42-0.406v-1.028a0.415,0.415,0,0,0-.42-0.406h-2.92v-0.508Zm-1.56.425h-3.91V608.3h3.91v0.768Z" transform="translate(-1476.22 -606.781)"/>
</svg>
