<svg xmlns="http://www.w3.org/2000/svg" width="22" height="25" viewBox="0 0 22 25">
  <defs>
    <style>
      .cls-1 {
        fill: #9c9da4;
        fill-rule: evenodd;
      }
    </style>
  </defs>
  <path class="cls-1" d="M9.626,0.5h9.766a0.853,0.853,0,0,0,.169.029,1.556,1.556,0,0,1,1.554,1.609c-0.022,1.495,0,5.337,0,6.832,0,3.926,0,10.2,0,14.125v1.4H19.844c-0.006-.048-0.013-0.072-0.013-0.1q0-4.586,0-9.171c0-2.773,0-10.241,0-13.015,0-.325-0.081-0.409-0.393-0.409-2.431,0-7.208,0-9.64,0-0.325,0-.41.094-0.41,0.42,0,0.944,0,4.235,0,5.179V8.528H9.707c1.6,0,4.207,0,5.81,0a1.5,1.5,0,0,1,1.567,1.236,4.358,4.358,0,0,1,.035.774c0,3.6,0,9.547,0,13.147V24.5H0.694V24.121q0-2.506,0-5.012c0-2.188-.006-6.724,0-8.912a1.561,1.561,0,0,1,1.7-1.67c0.82,0,3.14,0,3.958,0H8.091c0.009-.112.021-0.194,0.021-0.276,0-1.236,0-4.82-.005-6.056a1.679,1.679,0,0,1,.365-1.116A1.759,1.759,0,0,1,9.626.5Zm0.2,19.532v3.18h6a0.772,0.772,0,0,0,.017-0.093c0-3.534,0-9.415,0-12.95a0.316,0.316,0,0,0-.393-0.363h-13c-0.409,0-.471.068-0.471,0.488,0,0.819,0,3.985,0,4.8q0,3.458-.005,6.916v1.2H7.93V20.036h1.9Zm4.3-15.463h1.887V6.45H14.125V4.573ZM10.842,6.429V4.595h1.864V6.429H10.842ZM6.522,11.69v1.889H4.63V12.708c0-.284-0.006-0.568.006-0.851a0.214,0.214,0,0,1,.123-0.16C5.342,11.687,5.923,11.69,6.522,11.69Zm4.7,1.89V11.7H13.1V13.58H11.223Zm-4.7,6.493H4.65V18.191H6.518v1.882ZM13.1,18.19v1.875H11.234V18.19H13.1Zm-8.44-3.24H6.5v1.866H4.663V14.95ZM9.8,13.57H7.941V11.722H9.8V13.57Zm1.443,1.38h1.832v1.864H11.246V14.95Zm-3.305.026H9.773v1.846c-0.579,0-1.151,0-1.725-.008a0.233,0.233,0,0,1-.1-0.177C7.937,16.1,7.941,15.554,7.941,14.975Z"/>
</svg>
