<svg xmlns="http://www.w3.org/2000/svg" width="19.25" height="24" viewBox="0 0 19.25 24">
  <defs>
    <style>
      .cls-1 {
        fill: #9c9da4;
        fill-rule: evenodd;
      }
    </style>
  </defs>
  <path class="cls-1" d="M40.951,236.19H29.775a1.9,1.9,0,0,0-1.9,1.9v16.023a1.9,1.9,0,0,0,1.9,1.9H40.951a1.9,1.9,0,0,0,1.9-1.9V238.089A1.907,1.907,0,0,0,40.951,236.19Zm0.565,17.917a0.571,0.571,0,0,1-.572.57H29.771a0.572,0.572,0,0,1-.572-0.57V238.089a0.573,0.573,0,0,1,.572-0.571H40.944a0.572,0.572,0,0,1,.572.571v16.018Zm3.706-22.118H34.049a1.9,1.9,0,0,0-1.9,1.9,0.665,0.665,0,0,0,1.33,0,0.572,0.572,0,0,1,.572-0.571H45.222a0.572,0.572,0,0,1,.572.571v16.023a0.571,0.571,0,0,1-.572.57,0.664,0.664,0,1,0,0,1.328,1.9,1.9,0,0,0,1.9-1.9V233.888A1.9,1.9,0,0,0,45.222,231.989Z" transform="translate(-27.875 -232)"/>
</svg>
