<svg xmlns="http://www.w3.org/2000/svg" width="20.53" height="18.218" viewBox="0 0 20.53 18.218">
  <defs>
    <style>
      .cls-1 {
        fill: #b9babd;
        fill-rule: evenodd;
      }
    </style>
  </defs>
  <path id="Forma_1" data-name="Forma 1" class="cls-1" d="M2660.39,629.5a0.677,0.677,0,0,0-.62-0.389h-2.74v-5.637a0.675,0.675,0,0,0-.68-0.663h-2.74a0.678,0.678,0,0,0-.69.663v5.637h-2.74a0.691,0.691,0,0,0-.62.389,0.642,0.642,0,0,0,.11.71l4.79,5.3a0.7,0.7,0,0,0,1.03,0l4.79-5.3A0.642,0.642,0,0,0,2660.39,629.5Zm2.11,4.911v3.975h-15.05v-3.975h-2.74v5.3a1.345,1.345,0,0,0,1.37,1.325h17.8a1.343,1.343,0,0,0,1.36-1.325v-5.3h-2.74Z" transform="translate(-2644.72 -622.813)"/>
</svg>
