<svg xmlns="http://www.w3.org/2000/svg" width="20.15" height="19.969" viewBox="0 0 20.15 19.969">
  <defs>
    <style>
      .cls-1 {
        fill: #3a7ddd;
        fill-rule: evenodd;
      }
    </style>
  </defs>
  <path id="Forma_1" data-name="Forma 1" class="cls-1" d="M1608.51,539.311a2.691,2.691,0,0,0-3.8,0l-14.21,14.142a0.825,0.825,0,0,0-.23.373l-1.07,3.526a0.9,0.9,0,0,0,.86,1.156,0.9,0.9,0,0,0,.24-0.032l3.61-1a0.912,0.912,0,0,0,.4-0.229l14.2-14.133A2.687,2.687,0,0,0,1608.51,539.311Zm-15.3,16.5-1.82.5,0.53-1.753,12.61-12.546,1.27,1.267Zm14.03-13.966-0.17.172-1.27-1.266,0.17-.173A0.9,0.9,0,1,1,1607.24,541.845Z" transform="translate(-1589.16 -538.531)"/>
</svg>
