<svg xmlns="http://www.w3.org/2000/svg" width="26.25" height="20" viewBox="0 0 26.25 20">
  <defs>
    <style>
      .cls-1 {
        fill: #b4b5b9;
        fill-rule: evenodd;
      }
    </style>
  </defs>
  <path id="Forma_1" data-name="Forma 1" class="cls-1" d="M1690.82,426h-21.65a2.307,2.307,0,0,0-2.3,2.309V443.7a2.308,2.308,0,0,0,2.3,2.308h21.65a2.312,2.312,0,0,0,2.31-2.308v-15.39A2.311,2.311,0,0,0,1690.82,426Zm-0.32,1.539-10.45,10.457-10.55-10.457h21Zm-22.09,15.841v-14.76l7.41,7.348Zm1.08,1.088,7.42-7.416,2.6,2.576a0.761,0.761,0,0,0,1.08,0l2.54-2.534,7.37,7.376h-21.01Zm22.1-1.088L1684.22,436l7.37-7.376v14.752Z" transform="translate(-1666.88 -426)"/>
</svg>
