<svg xmlns="http://www.w3.org/2000/svg" width="26" height="14.562" viewBox="0 0 26 14.562">
  <defs>
    <style>
      .cls-1 {
        fill: #b9babd;
        fill-rule: evenodd;
      }
    </style>
  </defs>
  <path id="Forma_1" data-name="Forma 1" class="cls-1" d="M2147.5,567.72c-8.53,0-13,6.284-13,7.28s4.47,7.28,13,7.28,13-6.284,13-7.28S2156.03,567.72,2147.5,567.72Zm0,12.88a5.6,5.6,0,1,1,5.78-5.6A5.693,5.693,0,0,1,2147.5,580.6Zm0-5.6c-0.53-.581.86-2.8,0-2.8a2.8,2.8,0,1,0,2.89,2.8C2150.39,574.29,2147.95,575.493,2147.5,575Z" transform="translate(-2134.5 -567.719)"/>
</svg>
