<?xml version="1.0" encoding="utf-8"?>
<!-- Generator: Adobe Illustrator 23.0.0, SVG Export Plug-In . SVG Version: 6.00 Build 0)  -->
<svg version="1.1" id="Layer_1" xmlns="http://www.w3.org/2000/svg" xmlns:xlink="http://www.w3.org/1999/xlink" x="0px" y="0px"
	 viewBox="0 0 37 41" style="enable-background:new 0 0 37 41;" xml:space="preserve">
<style type="text/css">
	.st0{opacity:0.5;enable-background:new    ;}
</style>
<g>
	<path class="st0" d="M35.4,11.5C35.4,11.5,35.4,11.5,35.4,11.5c-1.2-1.2-3.2-1.2-4.4,0l-1,1v-6c0-0.8-0.3-1.6-0.9-2.2l-2.9-2.9
		c-0.1-0.1-0.2-0.2-0.3-0.3l-2.1-0.6H1.7c-0.6,0-1,0.5-1,1v25.6v12.3c0,0.6,0.5,1,1,1H29c0.6,0,1-0.5,1-1V21.2l5.4-5.4
		C36.6,14.6,36.6,12.7,35.4,11.5z M23.8,2.5H24c0.3,0,0.5,0.1,0.7,0.3l2.9,2.9c0.2,0.2,0.3,0.5,0.3,0.7v0.2h-4.1V2.5z M27.9,38.4
		L27.9,38.4l-25.2,0V2.5h19v5.1c0,0.6,0.5,1,1,1c0,0,0,0,0,0h5.2v5.9l-7,7c-0.1,0.1-0.2,0.3-0.3,0.5l-0.9,3.8
		c-0.1,0.6,0.2,1.1,0.8,1.2c0.2,0,0.3,0,0.5,0l3.8-0.9c0.2,0,0.4-0.1,0.5-0.3l2.7-2.7V38.4z M24.4,23.9L24,24.3l-1.9,0.4l0.5-1.9
		l0.4-0.4C23.6,22.8,24.1,23.3,24.4,23.9z M25.9,22.4c-0.2-0.3-0.4-0.5-0.6-0.8c-0.2-0.2-0.5-0.5-0.8-0.7c0.4-0.4,5.5-5.5,5.9-5.9
		l1.5,1.5L25.9,22.4z M33.9,14.3C33.9,14.4,33.9,14.4,33.9,14.3L33.9,14.3l-0.7,0.7l-1.5-1.5l0.7-0.7c0.4-0.4,1.1-0.4,1.5,0
		C34.3,13.3,34.3,13.9,33.9,14.3z"/>
	<path class="st0" d="M6.8,17.5l2.1,2c0.4,0.4,1.1,0.4,1.5,0l6.2-6.2c0.4-0.4,0.4-1,0-1.4c0,0,0,0,0,0h0c-0.4-0.4-1.1-0.4-1.5,0
		l-5.5,5.4l-1.3-1.3c-0.4-0.4-1.1-0.4-1.5,0C6.4,16.5,6.4,17.1,6.8,17.5C6.8,17.5,6.8,17.5,6.8,17.5z"/>
	<path class="st0" d="M15.8,24.6C15.8,24.6,15.8,24.6,15.8,24.6H7.5c-0.6,0-1,0.5-1,1c0,0.6,0.5,1,1,1c0,0,0,0,0,0h8.3
		c0.6,0,1-0.5,1-1S16.3,24.6,15.8,24.6z"/>
	<path class="st0" d="M15.8,28.7H7.5c-0.6,0-1,0.5-1,1s0.5,1,1,1c0,0,0,0,0,0h8.3c0.6,0,1-0.5,1-1S16.3,28.7,15.8,28.7
		C15.8,28.7,15.8,28.7,15.8,28.7z"/>
	<path class="st0" d="M19.5,32.8C19.5,32.8,19.5,32.8,19.5,32.8L19.5,32.8l-12,0c-0.6,0-1,0.5-1,1s0.5,1,1,1c0,0,0,0,0,0h11.9
		c0.6,0,1-0.4,1.1-1C20.5,33.3,20.1,32.8,19.5,32.8z"/>
</g>
</svg>
