<svg xmlns="http://www.w3.org/2000/svg" width="21.32" height="22" viewBox="0 0 21.32 22">
  <defs>
    <style>
      .cls-1 {
        fill: #9c9da4;
        fill-rule: evenodd;
      }
    </style>
  </defs>
  <path class="cls-1" d="M3630.06,337.867a0.523,0.523,0,0,0,.52-0.531v-1.675a1.154,1.154,0,0,0-1.15-1.162h-11.17a0.542,0.542,0,0,0-.38.156l-4.37,4.4a0.535,0.535,0,0,0-.16.376v15.909a1.162,1.162,0,0,0,1.16,1.161h14.92a1.153,1.153,0,0,0,1.15-1.161v-8.108a0.525,0.525,0,1,0-1.05,0v8.108a0.1,0.1,0,0,1-.1.1h-14.92a0.1,0.1,0,0,1-.1-0.1V339.961h3.22a1.153,1.153,0,0,0,1.15-1.161v-3.239h10.65a0.1,0.1,0,0,1,.1.1v1.675A0.525,0.525,0,0,0,3630.06,337.867Zm-12.33.933a0.1,0.1,0,0,1-.1.1h-2.47l2.57-2.586V338.8Zm16.39,0.014-0.62-.625a1.785,1.785,0,0,0-2.53,0l-4.93,4.959h-8.56a0.532,0.532,0,0,0,0,1.063h7.5l-3.18,3.195h-4.32a0.532,0.532,0,0,0,0,1.063h3.27l-0.01.008a0.658,0.658,0,0,0-.14.234l-0.81,2.954h-2.31a0.531,0.531,0,0,0,0,1.062h2.71s0.12-.014.13-0.018l3.34-.93a0.6,0.6,0,0,0,.23-0.136l10.23-10.289A1.8,1.8,0,0,0,3634.12,338.814Zm-13.17,12.619,0.43-1.561L3622.5,351Zm2.56-.916-1.65-1.664,8.45-8.493,1.65,1.663Zm9.86-9.913-0.66.669-1.66-1.664,0.67-.669a0.724,0.724,0,0,1,1.03,0l0.62,0.624A0.73,0.73,0,0,1,3633.37,340.6Z" transform="translate(-3613.34 -334.5)"/>
</svg>
