<?xml version="1.0" encoding="utf-8"?>
<!-- Generator: Adobe Illustrator 23.0.0, SVG Export Plug-In . SVG Version: 6.00 Build 0)  -->
<svg version="1.1" id="Layer_1" xmlns="http://www.w3.org/2000/svg" xmlns:xlink="http://www.w3.org/1999/xlink" x="0px" y="0px"
	 viewBox="0 0 42 39" style="enable-background:new 0 0 42 39;" xml:space="preserve">
<g>
	<path d="M39.8,21.5h-7.6v-3.4c0-1.1-0.8-2-1.9-2.1v5.5H13.9c-0.8,0.1-1.5,0.6-1.9,1.4L5.3,36.6H3.9c-0.6,0-1-0.5-1-1V14.6
		c0-0.3,0.1-0.5,0.3-0.7c0.2-0.2,0.5-0.3,0.7-0.3h1.4v-1.9H3.2c0,0,0,0,0,0c-1.3,0-2.3,1-2.3,2.3v22.3c0,0.6,0.2,1.2,0.7,1.6
		c0.4,0.4,1,0.7,1.6,0.7l28.5,0c0.9-0.1,1.7-0.6,2.1-1.4l7.1-13.5c0.2-0.2,0.3-0.5,0.3-0.8C41.1,22.1,40.6,21.5,39.8,21.5z"/>
	<path d="M6.9,30.4l1.2-2.4V2.4c0-0.2,0.1-0.3,0.3-0.3h13.7c0.2,0,0.4,0.2,0.4,0.4v4.2c0,0.4,0.3,0.8,0.8,0.8H27
		c0.2,0,0.4,0.2,0.4,0.4v12.5H29V6.6c0-0.2-0.1-0.4-0.2-0.6l-4.8-5.3c-0.2-0.2-0.4-0.3-0.6-0.3H8.4c-1,0-1.9,0.8-1.9,1.9
		c0,0-0.1,20.5,0,27.3C6.6,30.4,6.9,30.4,6.9,30.4z M24.1,3.3l2.3,2.5h-2.3V3.3z"/>
	<path d="M25,9H10.6c-0.5,0-1,0.4-1,1c0,0.5,0.4,1,1,1H25c0.5,0,1-0.4,1-1C25.9,9.4,25.5,9,25,9z"/>
	<path d="M9.6,21.3c0,0.5,0.4,1,1,1h0.3c0.3-1,1.1-1.7,2.1-1.9h-2.5C10.1,20.3,9.6,20.7,9.6,21.3z"/>
	<path d="M25.9,15.6L25.9,15.6c0-0.5-0.4-1-1-1H10.6c-0.5,0-1,0.4-1,1s0.4,1,1,1H25C25.5,16.6,25.9,16.1,25.9,15.6z"/>
</g>
</svg>
