<?xml version="1.0" encoding="utf-8"?>
<!-- Generator: Adobe Illustrator 23.0.0, SVG Export Plug-In . SVG Version: 6.00 Build 0)  -->
<svg version="1.1" id="Layer_1" xmlns="http://www.w3.org/2000/svg" xmlns:xlink="http://www.w3.org/1999/xlink" x="0px" y="0px"
	 viewBox="0 0 32 42" style="enable-background:new 0 0 32 42;" xml:space="preserve">
<style type="text/css">
	.st0{opacity:0.5;enable-background:new    ;}
</style>
<g>
	<path class="st0" d="M28,0H4C1.8,0,0,1.8,0,4V38c0,2.2,1.8,4,4,4h24c2.2,0,4-1.8,4-4V4C32,1.8,30.2,0,28,0z M30,38.5
		c0,0.8-0.7,1.5-1.5,1.5H3.5C2.7,40,2,39.3,2,38.5v-35C2,2.7,2.7,2,3.5,2h24.9C29.3,2,30,2.7,30,3.5V38.5z"/>
	<path class="st0" d="M16,16.2c2.8,0,5.1-2.3,5.1-5.1C21.1,8.2,18.8,6,16,6c-2.8,0-5.1,2.3-5.1,5.1C10.9,13.9,13.2,16.2,16,16.2z
		 M16,8.5c1.5,0,2.6,1.2,2.6,2.6c0,1.5-1.2,2.6-2.6,2.6c-1.4,0-2.6-1.2-2.6-2.6C13.4,9.6,14.6,8.5,16,8.5z"/>
	<path class="st0" d="M11.5,23.4v-1.2c0-1.4,1.1-2.5,2.5-2.5H18c1.4,0,2.5,1.1,2.5,2.5v1.2c0,0.7,0.6,1.2,1.3,1.2
		c0.7,0,1.2-0.5,1.2-1.2v-1.2c0-2.8-2.3-5-5-5h-3.9c-2.8,0-5,2.2-5,5v1.2c0,0.7,0.6,1.3,1.3,1.3S11.5,24.1,11.5,23.4z"/>
	<path class="st0" d="M22.7,26.3c-0.1,0-0.1,0-0.2,0H11.1c-0.6,0-1,0.4-1.1,0.9c0,0.6,0.4,1,0.9,1.1c0.1,0,0.1,0,0.2,0h11.5
		c0.6,0,1-0.4,1.1-0.9C23.7,26.8,23.3,26.3,22.7,26.3z"/>
	<path class="st0" d="M18.7,34c-0.1,0-0.1,0-0.2,0h-7.4c-0.6,0-1,0.4-1.1,0.9c0,0.6,0.4,1,0.9,1.1c0.1,0,0.1,0,0.2,0v0h7.4
		c0.6,0,1-0.4,1.1-0.9C19.6,34.5,19.2,34.1,18.7,34z"/>
	<path class="st0" d="M20.9,30.2c-0.1,0-0.1,0-0.2,0h-9.7c-0.6,0-1,0.4-1.1,0.9c0,0.6,0.4,1,0.9,1.1c0.1,0,0.1,0,0.2,0h9.7
		c0.6,0,1-0.4,1.1-0.9C21.9,30.7,21.5,30.2,20.9,30.2z"/>
</g>
</svg>
