<svg xmlns="http://www.w3.org/2000/svg" width="27" height="19" viewBox="0 0 27 19">
  <defs>
    <style>
      .cls-1 {
        fill: #9c9da4;
        fill-rule: evenodd;
      }
    </style>
  </defs>
  <path id="Forma_1" data-name="Forma 1" class="cls-1" d="M9.543,9.119A2.665,2.665,0,1,0,6.906,6.455,2.654,2.654,0,0,0,9.543,9.119Zm0-3.806a1.142,1.142,0,1,1-1.13,1.142A1.138,1.138,0,0,1,9.543,5.313Zm0,4.568a4.55,4.55,0,0,0-4.522,4.568,0.758,0.758,0,0,0,.754.761h7.536a0.758,0.758,0,0,0,.754-0.761A4.55,4.55,0,0,0,9.543,9.881ZM6.624,13.687a3.007,3.007,0,0,1,5.838,0H6.624ZM24.993,0.343H2.007A1.517,1.517,0,0,0,.5,1.866V17.134a1.517,1.517,0,0,0,1.507,1.523H24.993A1.517,1.517,0,0,0,26.5,17.134V1.866A1.517,1.517,0,0,0,24.993.343ZM2.007,17.134V1.866H24.993V17.134H2.007Zm20.348-8.4H16.7a0.761,0.761,0,0,0,0,1.522h5.652A0.761,0.761,0,0,0,22.355,8.739ZM18.21,12.545H16.7a0.761,0.761,0,0,0,0,1.523H18.21A0.761,0.761,0,0,0,18.21,12.545ZM16.7,6.455h4.22a0.761,0.761,0,0,0,0-1.523H16.7A0.761,0.761,0,0,0,16.7,6.455Z"/>
</svg>
