<svg xmlns="http://www.w3.org/2000/svg" width="15.41" height="20" viewBox="0 0 15.41 20">
  <defs>
    <style>
      .cls-1 {
        fill: #b9babd;
        fill-rule: evenodd;
      }
    </style>
  </defs>
  <path id="Forma_1" data-name="Forma 1" class="cls-1" d="M2730.52,629.148h-0.96v-1.9a4.825,4.825,0,0,0-9.65,0v1.9h-0.96a1.924,1.924,0,0,0-1.93,1.9v9.524a1.925,1.925,0,0,0,1.93,1.9h11.57a1.925,1.925,0,0,0,1.93-1.9v-9.524A1.924,1.924,0,0,0,2730.52,629.148Zm-5.79-4.858a2.987,2.987,0,0,1,2.99,2.953v1.9h-5.88v-1.9h-0.09A2.985,2.985,0,0,1,2724.73,624.29Zm5.79,16.287h-11.57v-9.524h11.57v9.524Zm-5.79-2.857a1.905,1.905,0,1,0-1.92-1.9A1.925,1.925,0,0,0,2724.73,637.72Z" transform="translate(-2717.03 -622.469)"/>
</svg>
