<svg xmlns="http://www.w3.org/2000/svg" width="13" height="18" viewBox="0 0 13 18">
  <defs>
    <style>
      .cls-1 {
        fill: #9c9da4;
        fill-rule: evenodd;
      }
    </style>
  </defs>
  <path id="Forma_1" data-name="Forma 1" class="cls-1" d="M1780.38,1594.04v-2.34a4.878,4.878,0,0,0-9.75,0v2.34a1.6,1.6,0,0,0-1.63,1.57v7.82a1.6,1.6,0,0,0,1.63,1.57h9.75a1.6,1.6,0,0,0,1.62-1.57v-7.82A1.6,1.6,0,0,0,1780.38,1594.04Zm-8.13-2.34a3.252,3.252,0,0,1,6.5,0v2.34h-6.5v-2.34Zm8.13,11.73h-9.75v-7.82h9.75v7.82Zm-5.69-3.34v1a0.811,0.811,0,0,0,1.62,0v-1a1.543,1.543,0,0,0,.82-1.35,1.626,1.626,0,0,0-3.25,0A1.534,1.534,0,0,0,1774.69,1600.09Z" transform="translate(-1769 -1587)"/>
</svg>
