<svg xmlns="http://www.w3.org/2000/svg" width="23.125" height="22" viewBox="0 0 23.125 22">
  <defs>
    <style>
      .cls-1 {
        fill: #9c9da4;
        fill-rule: evenodd;
      }
    </style>
  </defs>
  <path id="Forma_1_copy_18" data-name="Forma 1 copy 18" class="cls-1" d="M37.958,174.345a6.169,6.169,0,1,0-6.185-6.178A6.183,6.183,0,0,0,37.958,174.345Zm0-10.727a4.549,4.549,0,1,1-4.552,4.549A4.565,4.565,0,0,1,37.958,163.618Zm-10.7,20.374H48.731a0.809,0.809,0,0,0,.817-0.815,7.764,7.764,0,0,0-7.759-7.751H34.2a7.765,7.765,0,0,0-7.759,7.751A0.809,0.809,0,0,0,27.26,183.992Zm6.943-6.936h7.587a6.121,6.121,0,0,1,6.071,5.306H28.131A6.137,6.137,0,0,1,34.2,177.056Z" transform="translate(-26.438 -162)"/>
</svg>
