<?xml version="1.0" encoding="utf-8"?>
<!-- Generator: Adobe Illustrator 23.0.0, SVG Export Plug-In . SVG Version: 6.00 Build 0)  -->
<svg version="1.1" id="Layer_1" xmlns="http://www.w3.org/2000/svg" xmlns:xlink="http://www.w3.org/1999/xlink" x="0px" y="0px"
	 viewBox="0 0 34 27" style="enable-background:new 0 0 34 27;" xml:space="preserve">
<style type="text/css">
	.st0{opacity:0.5;enable-background:new    ;}
</style>
<g>
	<path class="st0" d="M26.6,2.1C25.3,0,24.3,0,22.9,0H11C9.4,0,8.3,0.3,7.6,1.7C5.4,5.9,0,16,0,16v8.4c0,0.2,0,0.4,0,0.6
		c0.2,1.2,1.3,2.1,2.5,2h28.9c0,0,0.1,0,0.1,0c1.4,0,2.5-1.1,2.5-2.5V16C34,16,28.9,6.4,26.6,2.1z M25.5,16c-0.1,4.6-3.9,8.1-8.5,8
		c-4.6,0.1-8.4-3.5-8.5-8H2L9.4,1.6h15.1L32,16l0,0H25.5z"/>
	<path class="st0" d="M11.1,6.1h11.8c0.5,0,1-0.4,1-1v0c0-0.5-0.4-1-1-1H11.1c-0.5,0-1,0.4-1,1v0C10.2,5.7,10.6,6.1,11.1,6.1z"/>
	<path class="st0" d="M26.8,12.2H7.1c-0.5,0-1,0.4-1,1v0c0,0.5,0.4,1,1,1h19.7c0.5,0,1-0.4,1-1v0C27.8,12.6,27.4,12.2,26.8,12.2z"/>
	<path class="st0" d="M9.2,10h15.6c0.5,0,1-0.4,1-1v0c0-0.5-0.4-1-1-1H9.2c-0.5,0-1,0.4-1,1v0c0,0,0,0,0,0C8.3,9.6,8.7,10,9.2,10z"
		/>
</g>
</svg>
