<svg xmlns="http://www.w3.org/2000/svg" width="20" height="21" viewBox="0 0 20 21">
  <defs>
    <style>
      .cls-1 {
        fill: #a2a3aa;
        fill-rule: evenodd;
      }
    </style>
  </defs>
  <path id="Print" class="cls-1" d="M1678.39,812.312h-0.54v-1.2a3.112,3.112,0,0,0-3.11-3.1h-6.53a3.112,3.112,0,0,0-3.11,3.1v1.2h-0.49a3.112,3.112,0,0,0-3.11,3.1v5a3.111,3.111,0,0,0,3.11,3.1h0.49v3.93a1.555,1.555,0,0,0,1.55,1.548h9.64a1.548,1.548,0,0,0,1.55-1.548v-3.93h0.55a3.111,3.111,0,0,0,3.11-3.1v-5A3.112,3.112,0,0,0,1678.39,812.312Zm-12.11-1.2a1.927,1.927,0,0,1,1.93-1.925h6.52a1.927,1.927,0,0,1,1.93,1.925v1.2h-10.38v-1.2Zm10.39,16.336a0.379,0.379,0,0,1-.38.374h-9.64a0.377,0.377,0,0,1-.37-0.374v-6.481h10.39v6.481Zm3.65-7.033a1.933,1.933,0,0,1-1.93,1.925h-0.54v-1.373h0.78a0.587,0.587,0,0,0,0-1.174h-14.39a0.587,0.587,0,1,0,0,1.174h0.86v1.373h-0.49a1.933,1.933,0,0,1-1.93-1.925v-5a1.934,1.934,0,0,1,1.93-1.926h13.78a1.934,1.934,0,0,1,1.93,1.926v5Zm-12.62,3.438h7.5a0.587,0.587,0,1,0,0-1.174h-7.5a0.585,0.585,0,0,0-.59.587A0.591,0.591,0,0,0,1667.7,823.853Zm7.55,1.226h-7.5a0.587,0.587,0,1,0,0,1.173h7.49A0.587,0.587,0,0,0,1675.25,825.079Zm3.13-10.463h-1.2a0.587,0.587,0,1,0,0,1.174h1.2A0.587,0.587,0,1,0,1678.38,814.616Z" transform="translate(-1661.5 -808)"/>
</svg>
