<svg xmlns="http://www.w3.org/2000/svg" width="34" height="34" viewBox="0 0 34 34">
  <defs>
    <style>
      .cls-1 {
        fill: #3a7ddd;
      }

      .cls-2 {
        fill: #fff;
        fill-rule: evenodd;
      }
    </style>
  </defs>
  <circle class="cls-1" cx="17" cy="17" r="17"/>
  <path id="star" class="cls-2" d="M25.184,14.19L20.5,13.747a0.81,0.81,0,0,1-.671-0.5L18.156,9.186a0.8,0.8,0,0,0-1.489,0L15,13.25a0.794,0.794,0,0,1-.671.5l-4.681.443A0.81,0.81,0,0,0,9.2,15.6l3.527,3.1a0.8,0.8,0,0,1,.255.791l-1.06,4.347a0.809,0.809,0,0,0,1.193.885l3.9-2.294a0.811,0.811,0,0,1,.818,0l3.9,2.294a0.807,0.807,0,0,0,1.194-.885l-1.046-4.347a0.8,0.8,0,0,1,.255-0.791l3.528-3.1A0.819,0.819,0,0,0,25.184,14.19Z"/>
</svg>
