<svg xmlns="http://www.w3.org/2000/svg" width="20" height="24" viewBox="0 0 20 24">
  <defs>
    <style>
      .cls-1 {
        fill: #9c9da4;
        fill-rule: evenodd;
      }
    </style>
  </defs>
  <path id="Forma_1" data-name="Forma 1" class="cls-1" d="M38.78,613.218a0.752,0.752,0,0,0-1.062,0l-2.472,2.473-0.971-.971a0.75,0.75,0,1,0-1.061,1.061l1.5,1.5a0.743,0.743,0,0,0,.53.22,0.752,0.752,0,0,0,.531-0.219l3-3A0.751,0.751,0,0,0,38.78,613.218Zm0,6a0.753,0.753,0,0,0-1.062,0L35.246,621.7l-0.971-.97a0.75,0.75,0,0,0-1.061,1.061l1.5,1.5a0.752,0.752,0,0,0,1.061,0l3-3A0.752,0.752,0,0,0,38.78,619.223Zm6.474-4.725h-4a0.751,0.751,0,0,0,0,1.5h4A0.751,0.751,0,0,0,45.254,614.5Zm0,6.006h-4a0.751,0.751,0,0,0,0,1.5h4A0.751,0.751,0,0,0,45.254,620.5Zm3.252-13.513h-4V606.24a0.751,0.751,0,0,0-.752-0.75H42.124a2.254,2.254,0,0,0-4.25,0H36.246a0.751,0.751,0,0,0-.752.75v0.751h-4a1.5,1.5,0,0,0-1.5,1.5V626.51a1.5,1.5,0,0,0,1.5,1.5H48.506a1.5,1.5,0,0,0,1.5-1.5V608.492A1.5,1.5,0,0,0,48.506,606.991Zm-11.51,0h1.5a0.751,0.751,0,0,0,.75-0.751,0.751,0.751,0,0,1,1.5,0,0.751,0.751,0,0,0,.75.751H43v1.5H37v-1.5Zm11.51,19.519H31.492V608.492h4v0.751a0.751,0.751,0,0,0,.752.751h7.506a0.751,0.751,0,0,0,.752-0.751v-0.751h4V626.51Z" transform="translate(-30 -604)"/>
</svg>
