<svg xmlns="http://www.w3.org/2000/svg" width="14.88" height="22" viewBox="0 0 14.88 22">
  <defs>
    <style>
      .cls-1 {
        fill: #9c9da4;
        fill-rule: evenodd;
      }
    </style>
  </defs>
  <path id="Forma_1" data-name="Forma 1" class="cls-1" d="M3944.5,334.5a7.345,7.345,0,1,0,7.45,7.344A7.4,7.4,0,0,0,3944.5,334.5Zm0,13.243a5.9,5.9,0,1,1,5.98-5.9A5.954,5.954,0,0,1,3944.5,347.743Zm5.2,7.747-0.37-8.572-1.46.061,0.32,7.471-3.03-2.571a0.977,0.977,0,0,0-1.33,0l-3.02,2.571,0.32-7.471-1.47-.061-0.36,8.572a0.037,0.037,0,0,0-.01.03,0.987,0.987,0,0,0,1.63.74l3.58-3.037,3.58,3.038a0.979,0.979,0,0,0,1.62-.741v-0.03Zm-1.95-15.843a0.733,0.733,0,0,0-1.03,0l-3.19,3.146-1.49-1.481a0.745,0.745,0,0,0-1.04-.007,0.709,0.709,0,0,0,0,1.022l2,2a0.733,0.733,0,0,0,.52.214h0a0.756,0.756,0,0,0,.52-0.211l3.71-3.66A0.709,0.709,0,0,0,3947.75,339.647Z" transform="translate(-3937.06 -334.5)"/>
</svg>
