<svg xmlns="http://www.w3.org/2000/svg" width="24" height="19" viewBox="0 0 24 19">
  <defs>
    <style>
      .cls-1 {
        fill: #9c9da4;
        fill-rule: evenodd;
      }
    </style>
  </defs>
  <path class="cls-1" d="M23.426,6.445c-0.211-.023-0.179-0.166-0.179-0.3,0-.545-0.005-2.091,0-2.636A0.7,0.7,0,0,0,22.7,2.721,0.256,0.256,0,0,1,22.472,2.4c0.009-.484,0-0.969,0-1.454A0.779,0.779,0,0,0,21.5,0H5.48C4.465,0,3.45,0,2.435,0a0.746,0.746,0,0,0-.906.875q-0.007.568,0,1.136c0,0.353.07,0.7-.452,0.817a0.586,0.586,0,0,0-.323.651c0.006,0.53-.01,2.061.007,2.59a0.339,0.339,0,0,1-.288.415A0.693,0.693,0,0,0,0,7.278Q0.008,10.6,0,13.913q0,2.113,0,4.226a0.729,0.729,0,0,0,.874.853Q12,19,23.131,19A1.129,1.129,0,0,0,24,18.589V6.86A0.986,0.986,0,0,0,23.426,6.445Zm-20.5-4.2c0.024-.883.006-0.883,0.9-0.883q8.359,0,16.718-.01c0.438,0,.549.117,0.532,0.527-0.033.805-.009,0.806-0.833,0.806H12c-2.872,0-5.744-.007-8.616.009C3.017,2.7,2.916,2.606,2.926,2.249ZM2.153,4.986c0.025-.933.006-0.933,0.978-0.933q9.108,0,18.216-.011c0.419,0,.519.1,0.5,0.5-0.032.882-.009,0.883-0.932,0.883H11.975c-3.122,0-6.244-.006-9.365.009C2.242,5.432,2.143,5.341,2.153,4.986Zm20.011,12.65c-3.389-.013-6.777-0.008-10.166-0.008s-6.777-.006-10.166.009c-0.351,0-.434-0.081-0.432-0.42,0.015-3,.016-7,0-10,0-.362.1-0.442,0.462-0.442Q12,6.794,22.147,6.777c0.374,0,.457.1,0.455,0.449-0.015,3-.016,7,0,10C22.606,17.576,22.5,17.637,22.164,17.636ZM12,16.507a3.864,3.864,0,0,1-3.918-3.8,3.919,3.919,0,0,1,7.835,0A3.864,3.864,0,0,1,12,16.507Zm0-6.236a2.437,2.437,0,1,0,2.512,2.436A2.478,2.478,0,0,0,12,10.271ZM5.367,14.222a1.516,1.516,0,1,1,1.562-1.515A1.541,1.541,0,0,1,5.367,14.222Zm0-2.122a0.607,0.607,0,1,0,.625.606A0.616,0.616,0,0,0,5.367,12.1Zm13.614,2.122a1.516,1.516,0,1,1,1.562-1.515A1.541,1.541,0,0,1,18.981,14.222Zm0-2.122a0.607,0.607,0,1,0,.625.606A0.617,0.617,0,0,0,18.981,12.1Z"/>
</svg>
