<svg xmlns="http://www.w3.org/2000/svg" width="16.04" height="16.688" viewBox="0 0 16.04 16.688">
  <defs>
    <style>
      .cls-1 {
        fill: #92949b;
        fill-rule: evenodd;
      }
    </style>
  </defs>
  <path id="Forma_1" data-name="Forma 1" class="cls-1" d="M2313.11,148.35l-3.95-4.127a6.679,6.679,0,1,0-5.12,2.4,6.6,6.6,0,0,0,3.84-1.218l3.97,4.159a0.873,0.873,0,0,0,.63.269,0.843,0.843,0,0,0,.6-0.245A0.884,0.884,0,0,0,2313.11,148.35Zm-9.07-13.431a4.976,4.976,0,1,1-4.95,4.976A4.968,4.968,0,0,1,2304.04,134.919Z" transform="translate(-2297.34 -133.156)"/>
</svg>
