<svg xmlns="http://www.w3.org/2000/svg" width="18" height="18" viewBox="0 0 18 18">
  <defs>
    <style>
      .cls-1 {
        fill: #b9babd;
        fill-rule: evenodd;
      }
    </style>
  </defs>
  <path id="Forma_1" data-name="Forma 1" class="cls-1" d="M1682.44,45.843a0.593,0.593,0,0,0-.58-0.444,1.986,1.986,0,0,1-1.36-3.462,0.5,0.5,0,0,0,.05-0.679,8.942,8.942,0,0,0-1.42-1.441,0.508,0.508,0,0,0-.69.055,2.065,2.065,0,0,1-2.24.5,2.008,2.008,0,0,1-1.22-1.955,0.491,0.491,0,0,0-.44-0.526,8.924,8.924,0,0,0-2.02-.005,0.5,0.5,0,0,0-.45.515,2,2,0,0,1-1.23,1.922,2.087,2.087,0,0,1-2.23-.508,0.5,0.5,0,0,0-.68-0.057,8.639,8.639,0,0,0-1.45,1.441,0.5,0.5,0,0,0,.05.684,1.983,1.983,0,0,1,.5,2.247,2.067,2.067,0,0,1-1.95,1.218,0.486,0.486,0,0,0-.52.442,9.352,9.352,0,0,0-.01,2.048,0.6,0.6,0,0,0,.59.443,1.96,1.96,0,0,1,1.85,1.234,1.987,1.987,0,0,1-.5,2.227,0.5,0.5,0,0,0-.05.679,8.817,8.817,0,0,0,1.42,1.441,0.506,0.506,0,0,0,.69-0.054,2.061,2.061,0,0,1,2.24-.505,2.021,2.021,0,0,1,1.22,1.955,0.49,0.49,0,0,0,.44.526,8.911,8.911,0,0,0,2.02.005,0.5,0.5,0,0,0,.45-0.516,1.981,1.981,0,0,1,1.23-1.921,2.059,2.059,0,0,1,2.22.508,0.517,0.517,0,0,0,.69.057,9.371,9.371,0,0,0,1.45-1.441,0.5,0.5,0,0,0-.05-0.684,2,2,0,0,1-.51-2.247,2.023,2.023,0,0,1,1.84-1.221l0.11,0a0.5,0.5,0,0,0,.53-0.441A9.352,9.352,0,0,0,1682.44,45.843Zm-8.93,4.023a3,3,0,1,1,3-3A3,3,0,0,1,1673.51,49.867Z" transform="translate(-1664.5 -37.844)"/>
</svg>
