<svg xmlns="http://www.w3.org/2000/svg" width="24" height="24" viewBox="0 0 24 24">
  <defs>
    <style>
      .cls-1 {
        fill: #9c9da4;
        fill-rule: evenodd;
      }
    </style>
  </defs>
  <path id="Forma_1" data-name="Forma 1" class="cls-1" d="M49.049,105.323a12.01,12.01,0,0,0-22.112,0,12,12,0,0,0,0,9.341,11.829,11.829,0,0,0,6.38,6.385,11.678,11.678,0,0,0,4.662.959A11.991,11.991,0,0,0,49.049,105.323Zm-1.917,9.971a10.539,10.539,0,0,1-3.862,3.85,10.334,10.334,0,0,1-5.291,1.418,10.147,10.147,0,0,1-4.1-.841,10.314,10.314,0,0,1-5.607-5.622,10.628,10.628,0,0,1,.578-9.394,10.535,10.535,0,0,1,3.847-3.849,10.549,10.549,0,0,1,10.569,0,10.585,10.585,0,0,1,3.862,3.849A10.6,10.6,0,0,1,47.132,115.294Zm-8.391-5.412v-6.806a0.758,0.758,0,0,0-.761-0.736,0.742,0.742,0,0,0-.723.736v6.911a0.568,0.568,0,0,1,.027.105,0.685,0.685,0,0,0,.2.591l3.926,3.928a0.746,0.746,0,0,0,1.011,0,0.709,0.709,0,0,0,0-1.025Z" transform="translate(-26 -98)"/>
</svg>
