<?xml version="1.0" encoding="utf-8"?>
<!-- Generator: Adobe Illustrator 23.0.0, SVG Export Plug-In . SVG Version: 6.00 Build 0)  -->
<svg version="1.1" id="Layer_1" xmlns="http://www.w3.org/2000/svg" xmlns:xlink="http://www.w3.org/1999/xlink" x="0px" y="0px"
	 viewBox="0 0 15.4 20" style="enable-background:new 0 0 15.4 20;" xml:space="preserve">
<style type="text/css">
	.st0{display:none;fill-rule:evenodd;clip-rule:evenodd;fill:#B9BABD;}
	.st1{fill:#B9BABD;}
</style>
<path id="Forma_1" class="st0" d="M13.5,6.7h-1V4.8c0-2.7-2.2-4.8-4.8-4.8C5,0,2.9,2.1,2.9,4.8v1.9h-1C0.9,6.7,0,7.5,0,8.6v9.5
	C0,19.2,0.9,20,1.9,20h11.6c1.1,0,1.9-0.8,1.9-1.9V8.6C15.4,7.5,14.5,6.7,13.5,6.7z M7.7,1.8c1.6,0,3,1.3,3,3v1.9H4.8V4.8H4.7
	C4.7,3.1,6.1,1.8,7.7,1.8L7.7,1.8z M13.5,18.1H1.9V8.6h11.6V18.1z M7.7,15.3c1.1,0,1.9-0.9,1.9-1.9c0-1.1-0.9-1.9-1.9-1.9
	c-1,0-1.9,0.9-1.9,1.9C5.8,14.4,6.6,15.2,7.7,15.3L7.7,15.3z"/>
<g>
	<g id="lock-open">
		<path class="st1" d="M7.8,15.1c1,0,1.9-0.9,1.9-1.9s-0.9-1.9-1.9-1.9S6,12.2,6,13.2S6.8,15.1,7.8,15.1z M13.5,6.6h-0.9V4.7
			c0-2.6-2.1-4.7-4.7-4.7S3.1,2.1,3.1,4.7h1.8c0-1.6,1.3-2.9,2.9-2.9s2.9,1.3,2.9,2.9v1.9H1.9C0.9,6.6,0,7.5,0,8.5V18
			c0,1,0.9,1.9,1.9,1.9h11.6c1,0,1.9-0.9,1.9-1.9V8.5C15.4,7.5,14.6,6.6,13.5,6.6z M13.5,18H1.9V8.5h11.6V18z"/>
	</g>
</g>
</svg>
