<svg xmlns="http://www.w3.org/2000/svg" width="23.12" height="22" viewBox="0 0 23.12 22">
  <defs>
    <style>
      .cls-1 {
        fill: #b4b5b9;
        fill-rule: evenodd;
      }
    </style>
  </defs>
  <path id="Forma_1" data-name="Forma 1" class="cls-1" d="M2045.96,223.345a6.169,6.169,0,1,0-6.19-6.178A6.182,6.182,0,0,0,2045.96,223.345Zm0-10.727a4.549,4.549,0,1,1-4.55,4.549A4.564,4.564,0,0,1,2045.96,212.618Zm-10.7,20.374h21.47a0.81,0.81,0,0,0,.82-0.815,7.764,7.764,0,0,0-7.76-7.751h-7.59a7.771,7.771,0,0,0-7.76,7.751A0.81,0.81,0,0,0,2035.26,232.992Zm6.94-6.936h7.59a6.123,6.123,0,0,1,6.07,5.306h-19.73A6.139,6.139,0,0,1,2042.2,226.056Z" transform="translate(-2034.44 -211)"/>
</svg>
