<svg xmlns="http://www.w3.org/2000/svg" width="20.06" height="25.188" viewBox="0 0 20.06 25.188">
  <defs>
    <style>
      .cls-1 {
        fill: #b4b5b9;
        fill-rule: evenodd;
      }
    </style>
  </defs>
  <path id="Forma_1" data-name="Forma 1" class="cls-1" d="M1393.38,435.541a4.009,4.009,0,0,0-3.12-1.494h-2.28v-1.755a9.149,9.149,0,0,0,1.26-1.927,2.476,2.476,0,0,0,1.65-1.751c0.42-1.18.23-2.238-.44-2.618a6.441,6.441,0,0,0-1.13-4.731,6.033,6.033,0,0,0-9.59,0,6.4,6.4,0,0,0-1.13,4.715c-0.7.367-.9,1.438-0.48,2.633a2.4,2.4,0,0,0,1.66,1.756,8,8,0,0,0,1.32,2.024v1.653h-2.31a4.069,4.069,0,0,0-3.15,1.494,5.213,5.213,0,0,0-1.16,3.325v2.394a0.652,0.652,0,0,0,.37.578,21.946,21.946,0,0,0,13.62,1.918,18.937,18.937,0,0,0,5.75-1.94,0.621,0.621,0,0,0,.3-0.556v-2.394A5.2,5.2,0,0,0,1393.38,435.541Zm-8.12,2.734a0.436,0.436,0,0,1-.44.44h-0.64a0.444,0.444,0,0,1-.45-0.44v-0.647a0.445,0.445,0,0,1,.45-0.441h0.64a0.436,0.436,0,0,1,.44.441v0.647Zm0.42-2.173a1.752,1.752,0,0,0-.82-0.188h-0.66a1.7,1.7,0,0,0-.82.188l-1.07-1.076a0.767,0.767,0,0,0,.07-0.305v-1.146a3.591,3.591,0,0,0,2.12.714,3.8,3.8,0,0,0,2.21-.774v1.206a0.7,0.7,0,0,0,.07.246Zm-4.91-14.085a4.758,4.758,0,0,1,7.51,0,5.076,5.076,0,0,1,.88,3.9c-4.21,1.03-6.23-2.924-6.31-3.091a0.649,0.649,0,0,0-1.22.177c0,0.028-.45,2.5-1.73,2.927A5.058,5.058,0,0,1,1380.77,422.017Zm-1.57,5.232c1.78,0.141,2.84-1.393,3.31-2.62a7.734,7.734,0,0,0,1.07,1.119,6.334,6.334,0,0,0,4.21,1.623,10.044,10.044,0,0,0,2.02-.209,1.965,1.965,0,0,1-.12,1.024,1.758,1.758,0,0,1-.59.894,0.66,0.66,0,0,0-.43,0,0.65,0.65,0,0,0-.37.347c-0.74,1.651-2.16,3.578-3.77,3.578s-3.04-1.933-3.78-3.588a0.638,0.638,0,0,0-.39-0.354,0.727,0.727,0,0,0-.2-0.029,0.661,0.661,0,0,0-.24.047,1.775,1.775,0,0,1-.59-0.892A2.125,2.125,0,0,1,1379.2,427.249Zm-3.44,11.617c0-1.7,1.07-3.546,3.03-3.546h2.05l1.71,1.736a1.678,1.678,0,0,0-.09.55v0.663a1.723,1.723,0,0,0,.52,1.233l-0.57,3.2a21.083,21.083,0,0,1-6.65-1.851v-1.988h0Zm7.96,3.93,0.49-2.807h0.64l0.49,2.81C1384.82,442.818,1384.28,442.82,1383.72,442.8Zm9.52-1.925a18.757,18.757,0,0,1-5.07,1.628c-0.48.086-.99,0.161-1.55,0.217l-0.58-3.214a1.706,1.706,0,0,0,.5-1.233v-0.663a1.984,1.984,0,0,0-.06-0.55l1.74-1.736h2.04c1.96,0,2.98,1.849,2.98,3.546v2h0Z" transform="translate(-1374.47 -418.906)"/>
</svg>
