<svg xmlns="http://www.w3.org/2000/svg" width="19.72" height="22" viewBox="0 0 19.72 22">
  <defs>
    <style>
      .cls-1 {
        fill: #b4b5b9;
        fill-rule: evenodd;
      }
    </style>
  </defs>
  <path class="cls-1" d="M1531.01,223.689a0.859,0.859,0,1,0,0,1.718h6.03a0.859,0.859,0,1,0,0-1.718h-6.03Zm2.02,7.59h-2.88a1.72,1.72,0,0,1-1.72-1.718V214.439a1.72,1.72,0,0,1,1.72-1.719h10.57a1.72,1.72,0,0,1,1.72,1.719v5.284a0.86,0.86,0,0,0,1.72,0v-5.284a3.44,3.44,0,0,0-3.44-3.437h-10.57a3.44,3.44,0,0,0-3.44,3.437v15.122a3.44,3.44,0,0,0,3.44,3.437h2.88A0.86,0.86,0,1,0,1533.03,231.279Zm12.65-7.837a2.575,2.575,0,0,0-3.64,0l-4.72,4.707a0.858,0.858,0,0,0-.22.359l-1.03,3.382a0.862,0.862,0,0,0,.83,1.109,0.834,0.834,0,0,0,.22-0.031l3.48-.961a0.833,0.833,0,0,0,.37-0.22l4.71-4.7A2.571,2.571,0,0,0,1545.68,223.442Zm-5.76,6.968-1.75.483,0.51-1.681,3.19-3.175,1.21,1.215Zm4.55-4.538-0.17.166-1.21-1.215,0.16-.166A0.861,0.861,0,1,1,1544.47,225.872Zm-13.46,1.106a0.86,0.86,0,1,0,0,1.719h3.4a0.86,0.86,0,1,0,0-1.719h-3.4Zm3.21-12.873a1.831,1.831,0,1,1-1.81,1.831A1.821,1.821,0,0,1,1534.22,214.105Zm0,4.577a3.308,3.308,0,0,0-3.29,3.318h6.58A3.3,3.3,0,0,0,1534.22,218.682Z" transform="translate(-1526.72 -211)"/>
</svg>
